# xmcd
#
# Track frame offsets:
#	150
#	18095
#	39633
#	58853
#	74090
#	92193
#	110690
#	127468
#	153110
#	168900
#	184573
#	197150
#
# Disc length: 2919
#
# Revision: 3
# Processed by: cddbd v1.5.1PL0 Copyright (c) Steve Scherf et al.
# Submitted via: ExactAudioCopy v0.90b4
# Normalized: r2:DSETVAR1
#
DISCID=ab0b650c
DTITLE=Various Artist - The Best of Southern Rock
DYEAR=1995
DGENRE=Rock
TTITLE0=Charlie Daniels Band - South's Gonna Do It Again
TTITLE1=Wet Willie - Street Corner Serenade
TTITLE2=Molly Hatchet - Stone In Your Heart
TTITLE3=Fabulous Thunderbirds - Tough Enuff
TTITLE4=Barefoot Jerry - Two Mile Pike
TTITLE5=Edgar Winter - Tobacco Road
TTITLE6=Greg Allman Band - I'm No Angel
TTITLE7=Dicky Betts Band - Rock Bottom
TTITLE8=Johnny Winter - Rock and Roll Hoochie Koo
TTITLE9=Ozark Mountain Daredevils - Take You Tonight
TTITLE10=New Riders of the Purple Sage - Panama Red
TTITLE11=Atlanta Rhythm Section - Alien
EXTD=
EXTT0=
EXTT1=
EXTT2=
EXTT3=
EXTT4=
EXTT5=
EXTT6=
EXTT7=
EXTT8=
EXTT9=
EXTT10=
EXTT11=
PLAYORDER=
